<?xml version="1.0" standalone="no"?>
<!DOCTYPE svg PUBLIC "-//W3C//DTD SVG 20010904//EN"
 "http://www.w3.org/TR/2001/REC-SVG-20010904/DTD/svg10.dtd">
<svg version="1.0" xmlns="http://www.w3.org/2000/svg"
 width="256.000000pt" height="256.000000pt" viewBox="0 0 256.000000 256.000000"
 preserveAspectRatio="xMidYMid meet">

<g transform="translate(0.000000,256.000000) scale(0.100000,-0.100000)"
fill="#FFFFFF" stroke="none">
<path d="M544 2439 c-49 -14 -125 -70 -161 -117 -65 -86 -63 -47 -63 -1096 0
-904 1 -953 19 -991 36 -78 111 -125 200 -125 45 0 86 18 381 165 203 101 342
165 360 165 18 0 157 -64 360 -165 302 -150 336 -165 383 -165 95 1 183 63
207 147 8 27 10 324 8 998 l-3 960 -28 57 c-30 62 -83 115 -149 150 l-43 23
-720 2 c-416 1 -733 -2 -751 -8z m1427 -215 c61 -31 59 3 59 -994 l0 -910
-322 161 c-231 114 -338 162 -375 168 -100 15 -138 2 -480 -168 l-323 -161 0
909 c0 649 3 917 11 940 7 18 26 41 43 52 30 18 60 19 694 19 582 0 667 -2
693 -16z"/>
<path d="M1233 2014 c-54 -27 -63 -61 -63 -248 l0 -166 -171 0 c-142 0 -176
-3 -199 -17 -58 -34 -68 -116 -21 -164 l29 -29 181 0 181 0 0 -165 c0 -121 4
-175 14 -200 15 -35 59 -65 96 -65 37 0 81 30 96 65 10 25 14 79 14 200 l0
165 181 0 181 0 29 29 c32 32 38 79 17 126 -22 48 -51 55 -238 55 l-170 0 0
166 c0 188 -9 222 -65 248 -41 20 -52 20 -92 0z"/>
</g>
</svg>
