<?xml version="1.0" standalone="no"?>
<!DOCTYPE svg PUBLIC "-//W3C//DTD SVG 20010904//EN"
 "http://www.w3.org/TR/2001/REC-SVG-20010904/DTD/svg10.dtd">
<svg version="1.0" xmlns="http://www.w3.org/2000/svg"
 width="256.000000pt" height="256.000000pt" viewBox="0 0 256.000000 256.000000"
 preserveAspectRatio="xMidYMid meet">

<g transform="translate(0.000000,256.000000) scale(0.100000,-0.100000)"
fill="#000000" stroke="none">
<path d="M1150 2554 c-14 -2 -56 -9 -95 -15 -172 -27 -389 -121 -534 -229
-257 -192 -428 -462 -497 -782 -25 -116 -25 -380 0 -496 56 -260 168 -468 354
-655 178 -180 397 -298 654 -353 117 -26 380 -25 498 0 513 111 898 496 1005
1006 66 312 -9 690 -188 954 -37 55 -39 60 -28 96 49 165 -58 323 -221 323
-34 0 -74 -7 -97 -18 l-40 -18 -88 46 c-189 96 -341 136 -553 142 -80 2 -156
2 -170 -1z m303 -159 c115 -17 222 -51 333 -106 l81 -39 -5 -55 c-9 -110 39
-198 132 -241 54 -25 126 -31 171 -14 24 9 28 6 72 -62 198 -306 226 -721 73
-1064 -105 -233 -332 -459 -566 -565 -352 -157 -763 -123 -1086 90 -601 399
-682 1246 -166 1747 259 253 603 363 961 309z m705 -168 c31 -29 30 -90 -3
-122 -53 -54 -145 -16 -145 58 0 83 86 120 148 64z"/>
<path d="M1126 2003 c-233 -49 -431 -212 -529 -435 -20 -45 -30 -56 -54 -61
-46 -9 -114 -67 -141 -119 -33 -64 -33 -152 0 -216 27 -52 95 -110 141 -119
24 -5 34 -16 54 -61 59 -135 166 -259 288 -337 246 -158 582 -151 817 18 373
266 426 785 115 1115 -177 187 -440 269 -691 215z m345 -165 c98 -36 157 -74
229 -147 145 -148 201 -355 150 -555 -28 -109 -74 -190 -155 -272 -191 -192
-483 -228 -721 -89 -71 41 -174 150 -213 224 l-33 63 41 38 c108 99 108 261 0
360 l-41 38 33 63 c79 148 233 262 404 299 73 16 233 5 306 -22z m-802 -494
c25 -20 31 -34 31 -64 0 -30 -6 -44 -31 -64 -35 -30 -58 -32 -98 -11 -32 16
-41 33 -41 79 0 76 80 110 139 60z"/>
<path d="M1229 1569 c-231 -36 -323 -326 -157 -496 112 -115 304 -115 416 0
117 119 113 307 -7 420 -69 65 -157 91 -252 76z m123 -166 c53 -26 83 -99 66
-160 -21 -75 -101 -122 -175 -101 -136 37 -142 226 -8 273 42 14 72 11 117
-12z"/>
</g>
</svg>
