<?xml version="1.0" standalone="no"?>
<!DOCTYPE svg PUBLIC "-//W3C//DTD SVG 20010904//EN"
 "http://www.w3.org/TR/2001/REC-SVG-20010904/DTD/svg10.dtd">
<svg version="1.0" xmlns="http://www.w3.org/2000/svg"
 width="256.000000pt" height="256.000000pt" viewBox="0 0 256.000000 256.000000"
 preserveAspectRatio="xMidYMid meet">

<g transform="translate(0.000000,256.000000) scale(0.100000,-0.100000)"
fill="#FFFFFF" stroke="none">
<path d="M310 2432 c-64 -24 -160 -122 -183 -187 -25 -73 -26 -566 0 -645 21
-65 89 -142 157 -178 l51 -27 305 0 305 0 50 27 c60 32 114 87 146 148 24 44
24 49 24 350 l0 305 -27 51 c-36 68 -113 136 -178 157 -77 25 -583 24 -650 -1z
m617 -225 l28 -27 0 -260 0 -260 -28 -27 -27 -28 -260 0 -260 0 -27 28 -28 27
0 259 c0 245 1 260 20 281 11 12 29 26 40 31 11 4 131 7 267 6 l248 -2 27 -28z"/>
<path d="M1590 2432 c-64 -24 -160 -122 -183 -187 -25 -73 -26 -566 0 -645 21
-65 89 -142 157 -178 l51 -27 305 0 305 0 50 27 c60 32 114 87 146 148 24 44
24 49 24 350 l0 305 -27 51 c-36 68 -113 136 -178 157 -77 25 -583 24 -650 -1z
m617 -225 l28 -27 0 -260 0 -260 -28 -27 -27 -28 -260 0 -260 0 -27 28 -28 27
0 259 c0 245 1 260 20 281 11 12 29 26 40 31 11 4 131 7 267 6 l248 -2 27 -28z"/>
<path d="M310 1152 c-64 -24 -160 -122 -183 -187 -25 -73 -26 -566 0 -645 21
-65 89 -142 157 -178 l51 -27 305 0 305 0 50 27 c60 32 114 87 146 148 24 44
24 49 24 350 l0 305 -27 51 c-36 68 -113 136 -178 157 -77 25 -583 24 -650 -1z
m617 -225 l28 -27 0 -260 0 -260 -28 -27 -27 -28 -260 0 -260 0 -27 28 -28 27
0 259 c0 245 1 260 20 281 11 12 29 26 40 31 11 4 131 7 267 6 l248 -2 27 -28z"/>
<path d="M1590 1152 c-64 -24 -160 -122 -183 -187 -25 -73 -26 -566 0 -645 21
-65 89 -142 157 -178 l51 -27 305 0 305 0 50 27 c60 32 114 87 146 148 24 44
24 49 24 350 l0 305 -27 51 c-36 68 -113 136 -178 157 -77 25 -583 24 -650 -1z
m617 -225 l28 -27 0 -260 0 -260 -28 -27 -27 -28 -260 0 -260 0 -27 28 -28 27
0 259 c0 245 1 260 20 281 11 12 29 26 40 31 11 4 131 7 267 6 l248 -2 27 -28z"/>
</g>
</svg>
