<?xml version="1.0" standalone="no"?>
<!DOCTYPE svg PUBLIC "-//W3C//DTD SVG 20010904//EN"
 "http://www.w3.org/TR/2001/REC-SVG-20010904/DTD/svg10.dtd">
<svg version="1.0" xmlns="http://www.w3.org/2000/svg"
 width="256.000000pt" height="256.000000pt" viewBox="0 0 256.000000 256.000000"
 preserveAspectRatio="xMidYMid meet">

<g transform="translate(0.000000,256.000000) scale(0.100000,-0.100000)"
fill="#FFFFFF" stroke="none">
<path d="M1184 2536 c-56 -26 -98 -74 -120 -133 -10 -29 -13 -133 -14 -454 0
-330 -3 -419 -13 -427 -9 -8 -153 -12 -443 -14 -417 -3 -430 -4 -469 -25 -51
-27 -79 -57 -104 -113 -36 -79 -18 -184 42 -248 12 -13 40 -34 62 -45 39 -21
52 -22 469 -25 290 -2 434 -6 443 -14 10 -8 13 -97 13 -427 1 -449 2 -457 55
-527 35 -45 115 -84 175 -84 60 0 140 39 175 84 53 70 54 78 55 527 0 330 3
419 13 427 9 8 153 12 443 14 417 3 430 4 469 25 51 27 79 57 104 113 36 79
18 184 -42 248 -12 13 -40 34 -62 45 -39 21 -52 22 -469 25 -290 2 -434 6
-443 14 -10 8 -13 97 -13 427 -1 449 -2 457 -55 527 -35 45 -115 84 -175 84
-26 0 -66 -10 -96 -24z"/>
</g>
</svg>
