<?xml version="1.0" standalone="no"?>
<!DOCTYPE svg PUBLIC "-//W3C//DTD SVG 20010904//EN"
 "http://www.w3.org/TR/2001/REC-SVG-20010904/DTD/svg10.dtd">
<svg version="1.0" xmlns="http://www.w3.org/2000/svg"
 width="256.000000pt" height="256.000000pt" viewBox="0 0 256.000000 256.000000"
 preserveAspectRatio="xMidYMid meet" >

<g transform="translate(0.000000,256.000000) scale(0.100000,-0.100000)"
fill="#FFFFFF" stroke="none">
<path d="M1033 2539 c-57 -28 -83 -72 -83 -141 0 -64 20 -96 119 -193 33 -33
61 -62 61 -66 0 -3 -22 -9 -50 -13 -117 -16 -318 -101 -427 -183 -287 -214
-443 -523 -443 -875 0 -485 329 -908 805 -1035 89 -23 118 -26 265 -26 147 0
176 3 265 26 454 121 782 518 801 972 5 102 3 113 -18 149 -61 103 -211 102
-272 -3 -13 -23 -22 -64 -27 -129 -30 -348 -265 -617 -601 -686 -333 -69 -684
107 -827 414 -86 183 -94 414 -23 596 84 212 292 400 497 450 27 7 24 0 -42
-69 -79 -84 -88 -103 -81 -179 5 -44 11 -57 46 -89 24 -23 55 -40 77 -45 76
-14 94 0 352 258 335 336 334 299 10 626 -270 271 -303 291 -404 241z"/>
</g>
</svg>
