<?xml version="1.0" standalone="no"?>
<!DOCTYPE svg PUBLIC "-//W3C//DTD SVG 20010904//EN"
 "http://www.w3.org/TR/2001/REC-SVG-20010904/DTD/svg10.dtd">
<svg version="1.0" xmlns="http://www.w3.org/2000/svg"
 width="256.000000pt" height="256.000000pt" viewBox="0 0 256.000000 256.000000"
 preserveAspectRatio="xMidYMid meet">

<g transform="translate(0.000000,256.000000) scale(0.100000,-0.100000)"
fill="#FFFFFF" stroke="none">
<path d="M1740 2496 c-30 -7 -73 -21 -95 -31 -57 -27 -138 -112 -166 -173
l-24 -52 -683 0 c-752 0 -725 2 -758 -61 -22 -43 -11 -91 27 -123 l31 -26 692
0 693 0 18 -45 c25 -68 105 -149 183 -187 60 -30 75 -33 152 -33 152 1 267 71
331 201 l32 64 158 0 c154 0 158 0 188 26 38 32 49 80 27 123 -28 53 -57 61
-224 61 l-150 0 -27 55 c-32 67 -101 138 -165 170 -38 19 -155 48 -180 44 -3
0 -30 -6 -60 -13z m146 -222 c94 -45 113 -191 33 -258 -148 -125 -347 67 -227
219 41 53 128 70 194 39z"/>
<path d="M650 1641 c-100 -33 -190 -108 -234 -198 l-26 -51 -158 -4 c-132 -2
-161 -6 -184 -21 -37 -25 -53 -77 -38 -121 20 -62 45 -71 222 -74 l158 -4 26
-51 c34 -70 96 -132 169 -170 56 -30 67 -32 160 -32 90 0 106 3 158 28 73 36
145 107 176 175 l24 51 691 3 c651 3 693 4 718 21 37 25 53 77 38 121 -6 19
-23 43 -38 53 -25 17 -67 18 -718 21 l-691 3 -24 51 c-31 67 -103 139 -175
174 -47 23 -73 28 -143 31 -47 1 -97 -1 -111 -6z m166 -220 c122 -56 116 -238
-10 -286 -165 -63 -293 142 -164 262 48 45 108 54 174 24z"/>
<path d="M1713 786 c-103 -33 -206 -125 -239 -211 l-17 -45 -693 0 -692 0 -31
-26 c-38 -32 -49 -80 -27 -123 33 -63 6 -61 758 -61 l683 0 24 -52 c29 -64
110 -146 172 -175 187 -87 405 -12 494 172 l27 55 150 0 c167 0 196 8 224 61
22 43 11 91 -27 123 -30 26 -34 26 -188 26 l-158 0 -32 64 c-39 80 -111 147
-189 177 -71 27 -182 34 -239 15z m181 -224 c94 -54 101 -201 14 -264 -62 -44
-165 -33 -212 23 -56 66 -53 157 7 217 53 53 124 62 191 24z"/>
</g>
</svg>
